<svg xmlns="http://www.w3.org/2000/svg" xmlns:xlink="http://www.w3.org/1999/xlink" version="1.1" width="613.469pt" height="254.339pt" viewBox="0 0 613.469 254.339">
<defs>
<clipPath id="clip_0">
<path transform="matrix(1,0,0,-1,0,254.339)" d="M0 254.339H613.469V0H0Z"/>
</clipPath>
</defs>
<g id="layer_1" data-name="Ebene 1">
<path transform="matrix(1,0,0,-1,0,254.339)" d="M144.83 29.109H31.037003V44.289H144.83Z" fill="#225eac"/>
<path transform="matrix(1,0,0,-1,0,254.339)" d="M258.989 211.467H145.19602V226.647H258.989Z" fill="#225eac"/>
<g clip-path="url(#clip_0)">
<path transform="matrix(1,0,0,-1,79.6284,155.36292)" d="M0 0C13.525 0 24.59 11.159 24.59 24.913 24.59 38.572 13.525 50.02 0 50.02-13.427 50.02-24.492 38.572-24.492 24.913-24.492 11.159-13.427 0 0 0M0 59.639C18.916 59.639 34.046 44.15 34.046 24.913 34.046 5.677 18.916-9.617 0-9.617-18.913-9.617-33.949 5.677-33.949 24.913-33.949 44.15-18.913 59.639 0 59.639" fill="#231f20"/>
<path transform="matrix(1,0,0,-1,154.5078,141.61981)" d="M0 0-11.632 26.355H-12.105L-23.642 0ZM-42.84-20.392-13.808 44.345C-13.524 44.921-12.672 45.403-12.2 45.403H-11.254C-10.782 45.403-9.932 44.921-9.646 44.345L19.197-20.392C19.765-21.643 19.008-22.894 17.589-22.894H11.632C10.498-22.894 9.835-22.316 9.457-21.45L3.593-8.271H-27.331C-29.222-12.698-31.208-17.027-33.1-21.45-33.383-22.123-34.141-22.894-35.274-22.894H-41.232C-42.652-22.894-43.408-21.643-42.84-20.392" fill="#231f20"/>
<path transform="matrix(1,0,0,-1,164.4888,98.526)" d="M0 0C-.379 1.347 .376 2.308 1.701 2.308H8.037C8.795 2.308 9.55 1.636 9.739 .962L21.182-43.19H21.56L36.975 2.213C37.165 2.789 37.827 3.271 38.583 3.271H40.285C41.042 3.271 41.705 2.789 41.893 2.213L57.497-43.19H57.874L69.128 .962C69.318 1.636 70.074 2.308 70.831 2.308H77.168C78.491 2.308 79.248 1.347 78.87 0L60.995-64.641C60.808-65.41 60.05-65.987 59.294-65.987H57.781C57.119-65.987 56.361-65.506 56.172-64.929L39.528-17.122H39.056L22.695-64.929C22.506-65.506 21.749-65.987 21.088-65.987H19.574C18.817-65.987 18.062-65.41 17.873-64.641Z" fill="#231f20"/>
<path transform="matrix(1,0,0,-1,74.1597,85.906909)" d="M0 0C0-1.253-1.018-2.269-2.272-2.269H-8.322C-9.577-2.269-10.595-1.253-10.595 0V6.055C-10.595 7.309-9.577 8.325-8.322 8.325H-2.272C-1.018 8.325 0 7.309 0 6.055Z" fill="#231f20"/>
<path transform="matrix(1,0,0,-1,95.7886,85.906909)" d="M0 0C0-1.253-1.017-2.269-2.27-2.269H-8.322C-9.576-2.269-10.594-1.253-10.594 0V6.055C-10.594 7.309-9.576 8.325-8.322 8.325H-2.27C-1.017 8.325 0 7.309 0 6.055Z" fill="#231f20"/>
<path transform="matrix(1,0,0,-1,299.1953,133.8854)" d="M0 0C9.389 0 17.31 7.334 17.31 17.016 17.31 26.307 9.389 33.445-.098 33.445H-20.634V0ZM-25.328 36.673C-25.328 37.357-24.839 37.943-24.057 37.943H.196C12.127 37.943 22.004 28.947 22.004 17.016 22.004 7.139 15.158-.782 5.868-3.423L20.146-28.751C20.635-29.534 20.439-30.512 19.461-30.512H16.43C15.745-30.512 15.354-30.219 15.061-29.632L.881-4.01C-.391-4.107-1.467-4.107-2.738-4.107H-20.731V-29.24C-20.731-29.925-21.318-30.512-22.297-30.512H-24.057C-24.741-30.512-25.328-29.925-25.328-29.24Z" fill="#231f20"/>
<path transform="matrix(1,0,0,-1,337.4365,97.21251)" d="M0 0C0 .685 .587 1.271 1.271 1.271H3.423C4.107 1.271 4.694 .685 4.694 0V-65.913C4.694-66.695 4.01-67.185 3.325-67.185H1.271C.587-67.185 0-66.598 0-65.913Z" fill="#231f20"/>
<path transform="matrix(1,0,0,-1,393.376,94.9635)" d="M0 0C9.975 0 17.407-3.325 23.764-9.095 24.253-9.584 24.351-10.366 23.861-10.855L22.297-12.518C21.71-13.104 21.221-13.007 20.634-12.42 15.06-7.433 8.019-4.4 0-4.4-17.114-4.4-30.512-18.386-30.512-35.304-30.512-52.124-17.114-66.011 0-66.011 8.41-66.011 14.767-62.686 20.634-57.796 21.221-57.308 21.808-57.308 22.199-57.601L23.861-59.263C24.351-59.654 24.351-60.437 23.861-60.926 17.212-67.38 8.703-70.411 0-70.411-19.559-70.411-35.401-54.96-35.401-35.304-35.401-15.745-19.559 0 0 0" fill="#231f20"/>
<path transform="matrix(1,0,0,-1,471.6128,141.7086)" d="M0 0-16.723 39.41H-16.918L-33.934 0ZM-48.309-21.515-18.189 46.55C-17.994 46.94-17.504 47.234-17.016 47.234H-16.723C-16.232 47.234-15.744 47.136-15.451 46.55L14.377-21.515C14.572-22.102 14.572-22.688 13.496-22.688H10.953C10.27-22.688 9.779-22.199 9.584-21.809L1.664-3.814H-35.693L-43.518-21.809C-43.713-22.199-44.201-22.688-44.886-22.688H-47.625C-48.309-22.688-48.603-22.297-48.309-21.515" fill="#231f20"/>
<path transform="matrix(1,0,0,-1,509.269,95.6481)" d="M0 0C.098 .391 .488 .685 .879 .685H1.955C2.445 .685 2.738 .489 2.934 0L23.078-60.045H23.273L43.518 0C43.713 .489 44.006 .685 44.496 .685H45.572C45.963 .685 46.354 .391 46.451 0L60.338-67.478C60.533-68.456 60.143-68.749 59.262-68.749H56.916C56.328-68.749 55.84-68.26 55.742-67.673L44.691-10.366H44.496L24.742-68.944C24.545-69.531 23.959-69.727 23.373-69.727H22.98C22.492-69.727 21.906-69.629 21.709-68.944L1.955-10.366H1.76L-9.291-67.673C-9.389-68.26-9.877-68.749-10.465-68.749H-12.811C-13.691-68.749-14.082-68.456-13.887-67.478Z" fill="#231f20"/>
</g>
</g>
</svg>
